%TF.GenerationSoftware,KiCad,Pcbnew,9.0.7*%
%TF.CreationDate,2026-02-20T21:04:00-05:00*%
%TF.ProjectId,RMTS-Replacement,524d5453-2d52-4657-906c-6163656d656e,rev?*%
%TF.SameCoordinates,Original*%
%TF.FileFunction,Copper,L2,Bot*%
%TF.FilePolarity,Positive*%
%FSLAX46Y46*%
G04 Gerber Fmt 4.6, Leading zero omitted, Abs format (unit mm)*
G04 Created by KiCad (PCBNEW 9.0.7) date 2026-02-20 21:04:00*
%MOMM*%
%LPD*%
G01*
G04 APERTURE LIST*
G04 Aperture macros list*
%AMRoundRect*
0 Rectangle with rounded corners*
0 $1 Rounding radius*
0 $2 $3 $4 $5 $6 $7 $8 $9 X,Y pos of 4 corners*
0 Add a 4 corners polygon primitive as box body*
4,1,4,$2,$3,$4,$5,$6,$7,$8,$9,$2,$3,0*
0 Add four circle primitives for the rounded corners*
1,1,$1+$1,$2,$3*
1,1,$1+$1,$4,$5*
1,1,$1+$1,$6,$7*
1,1,$1+$1,$8,$9*
0 Add four rect primitives between the rounded corners*
20,1,$1+$1,$2,$3,$4,$5,0*
20,1,$1+$1,$4,$5,$6,$7,0*
20,1,$1+$1,$6,$7,$8,$9,0*
20,1,$1+$1,$8,$9,$2,$3,0*%
G04 Aperture macros list end*
%TA.AperFunction,ComponentPad*%
%ADD10RoundRect,0.250000X-0.600000X-0.725000X0.600000X-0.725000X0.600000X0.725000X-0.600000X0.725000X0*%
%TD*%
%TA.AperFunction,ComponentPad*%
%ADD11O,1.700000X1.950000*%
%TD*%
%TA.AperFunction,ComponentPad*%
%ADD12RoundRect,0.250000X-0.725000X0.600000X-0.725000X-0.600000X0.725000X-0.600000X0.725000X0.600000X0*%
%TD*%
%TA.AperFunction,ComponentPad*%
%ADD13O,1.950000X1.700000*%
%TD*%
%TA.AperFunction,ComponentPad*%
%ADD14RoundRect,0.656250X-0.343750X-0.218750X0.343750X-0.218750X0.343750X0.218750X-0.343750X0.218750X0*%
%TD*%
%TA.AperFunction,ViaPad*%
%ADD15C,0.600000*%
%TD*%
%TA.AperFunction,Conductor*%
%ADD16C,0.500000*%
%TD*%
%TA.AperFunction,Conductor*%
%ADD17C,0.300000*%
%TD*%
G04 APERTURE END LIST*
D10*
%TO.P,J3,1,Pin_1*%
%TO.N,GND*%
X166250000Y-107475000D03*
D11*
%TO.P,J3,2,Pin_2*%
%TO.N,+5V*%
X168750000Y-107475000D03*
%TO.P,J3,3,Pin_3*%
%TO.N,Net-(J3-Pin_3)*%
X171250000Y-107475000D03*
%TO.P,J3,4,Pin_4*%
%TO.N,Net-(J3-Pin_4)*%
X173750000Y-107475000D03*
%TD*%
D12*
%TO.P,J2,1,Pin_1*%
%TO.N,GND*%
X174000000Y-78000000D03*
D13*
%TO.P,J2,2,Pin_2*%
%TO.N,+5V*%
X174000000Y-80500000D03*
%TO.P,J2,3,Pin_3*%
%TO.N,Net-(J2-Pin_3)*%
X174000000Y-83000000D03*
%TD*%
D10*
%TO.P,J1,1,Pin_1*%
%TO.N,+3V3*%
X166250000Y-53475000D03*
D11*
%TO.P,J1,2,Pin_2*%
%TO.N,/TX*%
X168750000Y-53475000D03*
%TO.P,J1,3,Pin_3*%
%TO.N,/RX*%
X171250000Y-53475000D03*
%TO.P,J1,4,Pin_4*%
%TO.N,GND*%
X173750000Y-53475000D03*
%TD*%
D14*
%TO.P,Teensy4.1,0,RX1*%
%TO.N,unconnected-(Teensy4.1-RX1-Pad0)*%
X144380000Y-54330000D03*
%TO.P,Teensy4.1,1,TX1*%
%TO.N,unconnected-(Teensy4.1-TX1-Pad1)*%
X144380000Y-56870000D03*
%TO.P,Teensy4.1,2,PWM*%
%TO.N,unconnected-(Teensy4.1-PWM-Pad2)*%
X144380000Y-59410000D03*
%TO.P,Teensy4.1,3,PWM*%
%TO.N,unconnected-(Teensy4.1-PWM-Pad3)*%
X144380000Y-61950000D03*
%TO.P,Teensy4.1,3V,3.3V*%
%TO.N,+3V3*%
X144380000Y-87350000D03*
%TO.P,Teensy4.1,3V1,3.3V*%
X159620000Y-56870000D03*
%TO.P,Teensy4.1,4,PWM*%
%TO.N,unconnected-(Teensy4.1-PWM-Pad4)*%
X144380000Y-64490000D03*
%TO.P,Teensy4.1,5,PWM*%
%TO.N,unconnected-(Teensy4.1-PWM-Pad5)*%
X144380000Y-67030000D03*
%TO.P,Teensy4.1,5V,VIN*%
%TO.N,+5V*%
X159620000Y-51790000D03*
%TO.P,Teensy4.1,6,PWM*%
%TO.N,unconnected-(Teensy4.1-PWM-Pad6)*%
X144380000Y-69570000D03*
%TO.P,Teensy4.1,7,RX2*%
%TO.N,/RX*%
X144380000Y-72110000D03*
%TO.P,Teensy4.1,8,TX2*%
%TO.N,/TX*%
X144380000Y-74650000D03*
%TO.P,Teensy4.1,9,PWM*%
%TO.N,unconnected-(Teensy4.1-PWM-Pad9)*%
X144380000Y-77190000D03*
%TO.P,Teensy4.1,10,CS*%
%TO.N,unconnected-(Teensy4.1-CS-Pad10)*%
X144380000Y-79730000D03*
%TO.P,Teensy4.1,11,MOSI*%
%TO.N,unconnected-(Teensy4.1-MOSI-Pad11)*%
X144380000Y-82270000D03*
%TO.P,Teensy4.1,12,MISO*%
%TO.N,unconnected-(Teensy4.1-MISO-Pad12)*%
X144380000Y-84810000D03*
%TO.P,Teensy4.1,13,SCK*%
%TO.N,unconnected-(Teensy4.1-SCK-Pad13)*%
X159620000Y-84810000D03*
%TO.P,Teensy4.1,14,A0*%
%TO.N,unconnected-(Teensy4.1-A0-Pad14)*%
X159620000Y-82270000D03*
%TO.P,Teensy4.1,15,A1*%
%TO.N,unconnected-(Teensy4.1-A1-Pad15)*%
X159620000Y-79730000D03*
%TO.P,Teensy4.1,16,A2*%
%TO.N,unconnected-(Teensy4.1-A2-Pad16)*%
X159620000Y-77190000D03*
%TO.P,Teensy4.1,17,A3*%
%TO.N,unconnected-(Teensy4.1-A3-Pad17)*%
X159620000Y-74650000D03*
%TO.P,Teensy4.1,18,SDA*%
%TO.N,/ASDA*%
X159620000Y-72110000D03*
%TO.P,Teensy4.1,19,SCL*%
%TO.N,/ASCL*%
X159620000Y-69570000D03*
%TO.P,Teensy4.1,20,TX5*%
%TO.N,/ADRDY*%
X159620000Y-67030000D03*
%TO.P,Teensy4.1,21,RX5*%
%TO.N,unconnected-(Teensy4.1-RX5-Pad21)*%
X159620000Y-64490000D03*
%TO.P,Teensy4.1,22,PWM*%
%TO.N,unconnected-(Teensy4.1-PWM-Pad22)*%
X159620000Y-61950000D03*
%TO.P,Teensy4.1,23,PWM*%
%TO.N,unconnected-(Teensy4.1-PWM-Pad23)*%
X159620000Y-59410000D03*
%TO.P,Teensy4.1,24,SCL2*%
%TO.N,unconnected-(Teensy4.1-SCL2-Pad24)*%
X144380000Y-89890000D03*
%TO.P,Teensy4.1,25,SDA2*%
%TO.N,unconnected-(Teensy4.1-SDA2-Pad25)*%
X144380000Y-92430000D03*
%TO.P,Teensy4.1,26,MOSI1*%
%TO.N,unconnected-(Teensy4.1-MOSI1-Pad26)*%
X144380000Y-94970000D03*
%TO.P,Teensy4.1,27,SCK1*%
%TO.N,unconnected-(Teensy4.1-SCK1-Pad27)*%
X144380000Y-97510000D03*
%TO.P,Teensy4.1,28,RX7*%
%TO.N,unconnected-(Teensy4.1-RX7-Pad28)*%
X144380000Y-100050000D03*
%TO.P,Teensy4.1,29,TX7*%
%TO.N,unconnected-(Teensy4.1-TX7-Pad29)*%
X144380000Y-102590000D03*
%TO.P,Teensy4.1,30,GPIO*%
%TO.N,unconnected-(Teensy4.1-GPIO-Pad30)*%
X144380000Y-105130000D03*
%TO.P,Teensy4.1,31,GPIO*%
%TO.N,unconnected-(Teensy4.1-GPIO-Pad31)*%
X144380000Y-107670000D03*
%TO.P,Teensy4.1,32,GPIO*%
%TO.N,unconnected-(Teensy4.1-GPIO-Pad32)*%
X144380000Y-110210000D03*
%TO.P,Teensy4.1,33,PWM*%
%TO.N,unconnected-(Teensy4.1-PWM-Pad33)*%
X159620000Y-110210000D03*
%TO.P,Teensy4.1,34,RX8*%
%TO.N,unconnected-(Teensy4.1-RX8-Pad34)*%
X159620000Y-107670000D03*
%TO.P,Teensy4.1,35,TX8*%
%TO.N,unconnected-(Teensy4.1-TX8-Pad35)*%
X159620000Y-105130000D03*
%TO.P,Teensy4.1,36,PWM*%
%TO.N,unconnected-(Teensy4.1-PWM-Pad36)*%
X159620000Y-102590000D03*
%TO.P,Teensy4.1,37,PWM*%
%TO.N,unconnected-(Teensy4.1-PWM-Pad37)*%
X159620000Y-100050000D03*
%TO.P,Teensy4.1,38,CS1*%
%TO.N,unconnected-(Teensy4.1-CS1-Pad38)*%
X159620000Y-97510000D03*
%TO.P,Teensy4.1,39,MISO1*%
%TO.N,unconnected-(Teensy4.1-MISO1-Pad39)*%
X159620000Y-94970000D03*
%TO.P,Teensy4.1,40,A16*%
%TO.N,unconnected-(Teensy4.1-A16-Pad40)*%
X159620000Y-92430000D03*
%TO.P,Teensy4.1,41,A17*%
%TO.N,unconnected-(Teensy4.1-A17-Pad41)*%
X159620000Y-89890000D03*
%TO.P,Teensy4.1,G,GND*%
%TO.N,GND*%
X144380000Y-51790000D03*
%TO.P,Teensy4.1,G1,GND*%
X159620000Y-54330000D03*
%TO.P,Teensy4.1,G2,GND*%
X159620000Y-87350000D03*
%TD*%
D15*
%TO.N,+5V*%
X171225000Y-65000000D03*
%TO.N,GND*%
X175000000Y-65000000D03*
X163225000Y-98000000D03*
X169812500Y-97950000D03*
%TD*%
D16*
%TO.N,+5V*%
X171225000Y-64775000D02*
X171225000Y-65000000D01*
X171915000Y-64085000D02*
X159620000Y-51790000D01*
X171915000Y-64085000D02*
X171225000Y-64775000D01*
D17*
%TO.N,GND*%
X173750000Y-63750000D02*
X173750000Y-53475000D01*
X175000000Y-65000000D02*
X173750000Y-63750000D01*
D16*
X170275000Y-50000000D02*
X173750000Y-53475000D01*
X158870000Y-50000000D02*
X170275000Y-50000000D01*
X157080000Y-51790000D02*
X158870000Y-50000000D01*
X157000000Y-84730000D02*
X159620000Y-87350000D01*
X157000000Y-56950000D02*
X157000000Y-84730000D01*
X159620000Y-54330000D02*
X157000000Y-56950000D01*
X157080000Y-51790000D02*
X159620000Y-54330000D01*
X144380000Y-51790000D02*
X157080000Y-51790000D01*
%TO.N,+5V*%
X176000000Y-100225000D02*
X168750000Y-107475000D01*
X174000000Y-80500000D02*
X176000000Y-82500000D01*
X172574000Y-79074000D02*
X172574000Y-64744000D01*
X172574000Y-64744000D02*
X171915000Y-64085000D01*
X174000000Y-80500000D02*
X172574000Y-79074000D01*
%TO.N,GND*%
X163275000Y-97950000D02*
X163225000Y-98000000D01*
X169812500Y-97950000D02*
X163275000Y-97950000D01*
%TO.N,+5V*%
X176000000Y-82500000D02*
X176000000Y-100225000D01*
%TD*%
M02*
