%TF.GenerationSoftware,KiCad,Pcbnew,9.0.7*%
%TF.CreationDate,2026-02-20T21:04:00-05:00*%
%TF.ProjectId,RMTS-Replacement,524d5453-2d52-4657-906c-6163656d656e,rev?*%
%TF.SameCoordinates,Original*%
%TF.FileFunction,Soldermask,Bot*%
%TF.FilePolarity,Negative*%
%FSLAX46Y46*%
G04 Gerber Fmt 4.6, Leading zero omitted, Abs format (unit mm)*
G04 Created by KiCad (PCBNEW 9.0.7) date 2026-02-20 21:04:00*
%MOMM*%
%LPD*%
G01*
G04 APERTURE LIST*
G04 Aperture macros list*
%AMRoundRect*
0 Rectangle with rounded corners*
0 $1 Rounding radius*
0 $2 $3 $4 $5 $6 $7 $8 $9 X,Y pos of 4 corners*
0 Add a 4 corners polygon primitive as box body*
4,1,4,$2,$3,$4,$5,$6,$7,$8,$9,$2,$3,0*
0 Add four circle primitives for the rounded corners*
1,1,$1+$1,$2,$3*
1,1,$1+$1,$4,$5*
1,1,$1+$1,$6,$7*
1,1,$1+$1,$8,$9*
0 Add four rect primitives between the rounded corners*
20,1,$1+$1,$2,$3,$4,$5,0*
20,1,$1+$1,$4,$5,$6,$7,0*
20,1,$1+$1,$6,$7,$8,$9,0*
20,1,$1+$1,$8,$9,$2,$3,0*%
G04 Aperture macros list end*
%ADD10C,3.200000*%
%ADD11RoundRect,0.250000X-0.600000X-0.725000X0.600000X-0.725000X0.600000X0.725000X-0.600000X0.725000X0*%
%ADD12O,1.700000X1.950000*%
%ADD13RoundRect,0.250000X-0.725000X0.600000X-0.725000X-0.600000X0.725000X-0.600000X0.725000X0.600000X0*%
%ADD14O,1.950000X1.700000*%
%ADD15RoundRect,0.656250X-0.343750X-0.218750X0.343750X-0.218750X0.343750X0.218750X-0.343750X0.218750X0*%
G04 APERTURE END LIST*
D10*
%TO.C,H4*%
X181000000Y-50000000D03*
%TD*%
%TO.C,H3*%
X181000000Y-112000000D03*
%TD*%
%TO.C,H2*%
X139000000Y-112000000D03*
%TD*%
%TO.C,H1*%
X139000000Y-50000000D03*
%TD*%
D11*
%TO.C,J3*%
X166250000Y-107475000D03*
D12*
X168750000Y-107475000D03*
X171250000Y-107475000D03*
X173750000Y-107475000D03*
%TD*%
D13*
%TO.C,J2*%
X174000000Y-78000000D03*
D14*
X174000000Y-80500000D03*
X174000000Y-83000000D03*
%TD*%
D11*
%TO.C,J1*%
X166250000Y-53475000D03*
D12*
X168750000Y-53475000D03*
X171250000Y-53475000D03*
X173750000Y-53475000D03*
%TD*%
D15*
%TO.C,Teensy4.1*%
X144380000Y-54330000D03*
X144380000Y-56870000D03*
X144380000Y-59410000D03*
X144380000Y-61950000D03*
X144380000Y-87350000D03*
X159620000Y-56870000D03*
X144380000Y-64490000D03*
X144380000Y-67030000D03*
X159620000Y-51790000D03*
X144380000Y-69570000D03*
X144380000Y-72110000D03*
X144380000Y-74650000D03*
X144380000Y-77190000D03*
X144380000Y-79730000D03*
X144380000Y-82270000D03*
X144380000Y-84810000D03*
X159620000Y-84810000D03*
X159620000Y-82270000D03*
X159620000Y-79730000D03*
X159620000Y-77190000D03*
X159620000Y-74650000D03*
X159620000Y-72110000D03*
X159620000Y-69570000D03*
X159620000Y-67030000D03*
X159620000Y-64490000D03*
X159620000Y-61950000D03*
X159620000Y-59410000D03*
X144380000Y-89890000D03*
X144380000Y-92430000D03*
X144380000Y-94970000D03*
X144380000Y-97510000D03*
X144380000Y-100050000D03*
X144380000Y-102590000D03*
X144380000Y-105130000D03*
X144380000Y-107670000D03*
X144380000Y-110210000D03*
X159620000Y-110210000D03*
X159620000Y-107670000D03*
X159620000Y-105130000D03*
X159620000Y-102590000D03*
X159620000Y-100050000D03*
X159620000Y-97510000D03*
X159620000Y-94970000D03*
X159620000Y-92430000D03*
X159620000Y-89890000D03*
X144380000Y-51790000D03*
X159620000Y-54330000D03*
X159620000Y-87350000D03*
%TD*%
M02*
