%TF.GenerationSoftware,KiCad,Pcbnew,9.0.7*%
%TF.CreationDate,2026-02-20T21:04:00-05:00*%
%TF.ProjectId,RMTS-Replacement,524d5453-2d52-4657-906c-6163656d656e,rev?*%
%TF.SameCoordinates,Original*%
%TF.FileFunction,Copper,L1,Top*%
%TF.FilePolarity,Positive*%
%FSLAX46Y46*%
G04 Gerber Fmt 4.6, Leading zero omitted, Abs format (unit mm)*
G04 Created by KiCad (PCBNEW 9.0.7) date 2026-02-20 21:04:00*
%MOMM*%
%LPD*%
G01*
G04 APERTURE LIST*
G04 Aperture macros list*
%AMRoundRect*
0 Rectangle with rounded corners*
0 $1 Rounding radius*
0 $2 $3 $4 $5 $6 $7 $8 $9 X,Y pos of 4 corners*
0 Add a 4 corners polygon primitive as box body*
4,1,4,$2,$3,$4,$5,$6,$7,$8,$9,$2,$3,0*
0 Add four circle primitives for the rounded corners*
1,1,$1+$1,$2,$3*
1,1,$1+$1,$4,$5*
1,1,$1+$1,$6,$7*
1,1,$1+$1,$8,$9*
0 Add four rect primitives between the rounded corners*
20,1,$1+$1,$2,$3,$4,$5,0*
20,1,$1+$1,$4,$5,$6,$7,0*
20,1,$1+$1,$6,$7,$8,$9,0*
20,1,$1+$1,$8,$9,$2,$3,0*%
G04 Aperture macros list end*
%TA.AperFunction,SMDPad,CuDef*%
%ADD10RoundRect,0.150000X-0.587500X-0.150000X0.587500X-0.150000X0.587500X0.150000X-0.587500X0.150000X0*%
%TD*%
%TA.AperFunction,SMDPad,CuDef*%
%ADD11RoundRect,0.100000X0.100000X-0.712500X0.100000X0.712500X-0.100000X0.712500X-0.100000X-0.712500X0*%
%TD*%
%TA.AperFunction,SMDPad,CuDef*%
%ADD12RoundRect,0.100000X0.637500X0.100000X-0.637500X0.100000X-0.637500X-0.100000X0.637500X-0.100000X0*%
%TD*%
%TA.AperFunction,SMDPad,CuDef*%
%ADD13RoundRect,0.200000X-0.200000X-0.275000X0.200000X-0.275000X0.200000X0.275000X-0.200000X0.275000X0*%
%TD*%
%TA.AperFunction,ComponentPad*%
%ADD14RoundRect,0.250000X-0.600000X-0.725000X0.600000X-0.725000X0.600000X0.725000X-0.600000X0.725000X0*%
%TD*%
%TA.AperFunction,ComponentPad*%
%ADD15O,1.700000X1.950000*%
%TD*%
%TA.AperFunction,ComponentPad*%
%ADD16RoundRect,0.250000X-0.725000X0.600000X-0.725000X-0.600000X0.725000X-0.600000X0.725000X0.600000X0*%
%TD*%
%TA.AperFunction,ComponentPad*%
%ADD17O,1.950000X1.700000*%
%TD*%
%TA.AperFunction,SMDPad,CuDef*%
%ADD18RoundRect,0.225000X0.225000X0.250000X-0.225000X0.250000X-0.225000X-0.250000X0.225000X-0.250000X0*%
%TD*%
%TA.AperFunction,SMDPad,CuDef*%
%ADD19RoundRect,0.225000X-0.225000X-0.250000X0.225000X-0.250000X0.225000X0.250000X-0.225000X0.250000X0*%
%TD*%
%TA.AperFunction,SMDPad,CuDef*%
%ADD20RoundRect,0.225000X0.250000X-0.225000X0.250000X0.225000X-0.250000X0.225000X-0.250000X-0.225000X0*%
%TD*%
%TA.AperFunction,ComponentPad*%
%ADD21RoundRect,0.656250X-0.343750X-0.218750X0.343750X-0.218750X0.343750X0.218750X-0.343750X0.218750X0*%
%TD*%
%TA.AperFunction,ViaPad*%
%ADD22C,0.600000*%
%TD*%
%TA.AperFunction,Conductor*%
%ADD23C,0.200000*%
%TD*%
%TA.AperFunction,Conductor*%
%ADD24C,0.300000*%
%TD*%
%TA.AperFunction,Conductor*%
%ADD25C,0.500000*%
%TD*%
G04 APERTURE END LIST*
D10*
%TO.P,U3,1,K*%
%TO.N,Net-(U3-K)*%
X172062500Y-96050000D03*
%TO.P,U3,2,A*%
%TO.N,GND*%
X172062500Y-97950000D03*
%TO.P,U3,3*%
%TO.N,N/C*%
X173937500Y-97000000D03*
%TD*%
D11*
%TO.P,U2,1,EN*%
%TO.N,+5V*%
X167025000Y-97112500D03*
%TO.P,U2,2,V_IM*%
%TO.N,Net-(J3-Pin_3)*%
X167675000Y-97112500D03*
%TO.P,U2,3,V_IP*%
%TO.N,Net-(J3-Pin_4)*%
X168325000Y-97112500D03*
%TO.P,U2,4,V_SS*%
%TO.N,GND*%
X168975000Y-97112500D03*
%TO.P,U2,5,V_REF*%
%TO.N,Net-(U2-V_REF)*%
X168975000Y-92887500D03*
%TO.P,U2,6,V_FG*%
%TO.N,Net-(U2-V_FG)*%
X168325000Y-92887500D03*
%TO.P,U2,7,V_OUT*%
%TO.N,/LC0*%
X167675000Y-92887500D03*
%TO.P,U2,8,V_DD*%
%TO.N,+5V*%
X167025000Y-92887500D03*
%TD*%
D12*
%TO.P,U1,1,A0*%
%TO.N,GND*%
X174862500Y-71275000D03*
%TO.P,U1,2,A1*%
X174862500Y-70625000D03*
%TO.P,U1,3,~{RESET}*%
%TO.N,+3V3*%
X174862500Y-69975000D03*
%TO.P,U1,4,DGND*%
%TO.N,GND*%
X174862500Y-69325000D03*
%TO.P,U1,5,AGND*%
X174862500Y-68675000D03*
%TO.P,U1,6,AIN3*%
%TO.N,unconnected-(U1-AIN3-Pad6)*%
X174862500Y-68025000D03*
%TO.P,U1,7,AIN2*%
%TO.N,Net-(J2-Pin_3)*%
X174862500Y-67375000D03*
%TO.P,U1,8,REFN*%
%TO.N,GND*%
X174862500Y-66725000D03*
%TO.P,U1,9,REFP*%
%TO.N,+5V*%
X169137500Y-66725000D03*
%TO.P,U1,10,AIN1*%
%TO.N,unconnected-(U1-AIN1-Pad10)*%
X169137500Y-67375000D03*
%TO.P,U1,11,AIN0*%
%TO.N,/LC0*%
X169137500Y-68025000D03*
%TO.P,U1,12,AVDD*%
%TO.N,+5V*%
X169137500Y-68675000D03*
%TO.P,U1,13,DVDD*%
%TO.N,+3V3*%
X169137500Y-69325000D03*
%TO.P,U1,14,~{DRDY}*%
%TO.N,/ADRDY*%
X169137500Y-69975000D03*
%TO.P,U1,15,SDA*%
%TO.N,/ASDA*%
X169137500Y-70625000D03*
%TO.P,U1,16,SCL*%
%TO.N,/ASCL*%
X169137500Y-71275000D03*
%TD*%
D13*
%TO.P,R7,1*%
%TO.N,+5V*%
X171175000Y-94000000D03*
%TO.P,R7,2*%
%TO.N,Net-(U3-K)*%
X172825000Y-94000000D03*
%TD*%
%TO.P,R6,1*%
%TO.N,Net-(U2-V_FG)*%
X171175000Y-90000000D03*
%TO.P,R6,2*%
%TO.N,Net-(U3-K)*%
X172825000Y-90000000D03*
%TD*%
%TO.P,R5,1*%
%TO.N,Net-(U2-V_REF)*%
X171175000Y-92000000D03*
%TO.P,R5,2*%
%TO.N,Net-(U3-K)*%
X172825000Y-92000000D03*
%TD*%
%TO.P,R4,1*%
%TO.N,/LC0*%
X167175000Y-90000000D03*
%TO.P,R4,2*%
%TO.N,Net-(U2-V_FG)*%
X168825000Y-90000000D03*
%TD*%
%TO.P,R3,1*%
%TO.N,+3V3*%
X151175000Y-67000000D03*
%TO.P,R3,2*%
%TO.N,/ADRDY*%
X152825000Y-67000000D03*
%TD*%
%TO.P,R2,1*%
%TO.N,+3V3*%
X151175000Y-73000000D03*
%TO.P,R2,2*%
%TO.N,/ASDA*%
X152825000Y-73000000D03*
%TD*%
%TO.P,R1,1*%
%TO.N,+3V3*%
X151175000Y-70000000D03*
%TO.P,R1,2*%
%TO.N,/ASCL*%
X152825000Y-70000000D03*
%TD*%
D14*
%TO.P,J3,1,Pin_1*%
%TO.N,GND*%
X166250000Y-107475000D03*
D15*
%TO.P,J3,2,Pin_2*%
%TO.N,+5V*%
X168750000Y-107475000D03*
%TO.P,J3,3,Pin_3*%
%TO.N,Net-(J3-Pin_3)*%
X171250000Y-107475000D03*
%TO.P,J3,4,Pin_4*%
%TO.N,Net-(J3-Pin_4)*%
X173750000Y-107475000D03*
%TD*%
D16*
%TO.P,J2,1,Pin_1*%
%TO.N,GND*%
X174000000Y-78000000D03*
D17*
%TO.P,J2,2,Pin_2*%
%TO.N,+5V*%
X174000000Y-80500000D03*
%TO.P,J2,3,Pin_3*%
%TO.N,Net-(J2-Pin_3)*%
X174000000Y-83000000D03*
%TD*%
D14*
%TO.P,J1,1,Pin_1*%
%TO.N,+3V3*%
X166250000Y-53475000D03*
D15*
%TO.P,J1,2,Pin_2*%
%TO.N,/TX*%
X168750000Y-53475000D03*
%TO.P,J1,3,Pin_3*%
%TO.N,/RX*%
X171250000Y-53475000D03*
%TO.P,J1,4,Pin_4*%
%TO.N,GND*%
X173750000Y-53475000D03*
%TD*%
D18*
%TO.P,C5,1*%
%TO.N,+5V*%
X164775000Y-96000000D03*
%TO.P,C5,2*%
%TO.N,GND*%
X163225000Y-96000000D03*
%TD*%
%TO.P,C4,1*%
%TO.N,+5V*%
X164775000Y-94000000D03*
%TO.P,C4,2*%
%TO.N,GND*%
X163225000Y-94000000D03*
%TD*%
%TO.P,C3,1*%
%TO.N,Net-(J3-Pin_4)*%
X169500000Y-99500000D03*
%TO.P,C3,2*%
%TO.N,Net-(J3-Pin_3)*%
X167950000Y-99500000D03*
%TD*%
D19*
%TO.P,C2,1*%
%TO.N,+5V*%
X171225000Y-65000000D03*
%TO.P,C2,2*%
%TO.N,GND*%
X172775000Y-65000000D03*
%TD*%
D20*
%TO.P,C1,1*%
%TO.N,+3V3*%
X177000000Y-69775000D03*
%TO.P,C1,2*%
%TO.N,GND*%
X177000000Y-68225000D03*
%TD*%
D21*
%TO.P,Teensy4.1,0,RX1*%
%TO.N,unconnected-(Teensy4.1-RX1-Pad0)*%
X144380000Y-54330000D03*
%TO.P,Teensy4.1,1,TX1*%
%TO.N,unconnected-(Teensy4.1-TX1-Pad1)*%
X144380000Y-56870000D03*
%TO.P,Teensy4.1,2,PWM*%
%TO.N,unconnected-(Teensy4.1-PWM-Pad2)*%
X144380000Y-59410000D03*
%TO.P,Teensy4.1,3,PWM*%
%TO.N,unconnected-(Teensy4.1-PWM-Pad3)*%
X144380000Y-61950000D03*
%TO.P,Teensy4.1,3V,3.3V*%
%TO.N,+3V3*%
X144380000Y-87350000D03*
%TO.P,Teensy4.1,3V1,3.3V*%
X159620000Y-56870000D03*
%TO.P,Teensy4.1,4,PWM*%
%TO.N,unconnected-(Teensy4.1-PWM-Pad4)*%
X144380000Y-64490000D03*
%TO.P,Teensy4.1,5,PWM*%
%TO.N,unconnected-(Teensy4.1-PWM-Pad5)*%
X144380000Y-67030000D03*
%TO.P,Teensy4.1,5V,VIN*%
%TO.N,+5V*%
X159620000Y-51790000D03*
%TO.P,Teensy4.1,6,PWM*%
%TO.N,unconnected-(Teensy4.1-PWM-Pad6)*%
X144380000Y-69570000D03*
%TO.P,Teensy4.1,7,RX2*%
%TO.N,/RX*%
X144380000Y-72110000D03*
%TO.P,Teensy4.1,8,TX2*%
%TO.N,/TX*%
X144380000Y-74650000D03*
%TO.P,Teensy4.1,9,PWM*%
%TO.N,unconnected-(Teensy4.1-PWM-Pad9)*%
X144380000Y-77190000D03*
%TO.P,Teensy4.1,10,CS*%
%TO.N,unconnected-(Teensy4.1-CS-Pad10)*%
X144380000Y-79730000D03*
%TO.P,Teensy4.1,11,MOSI*%
%TO.N,unconnected-(Teensy4.1-MOSI-Pad11)*%
X144380000Y-82270000D03*
%TO.P,Teensy4.1,12,MISO*%
%TO.N,unconnected-(Teensy4.1-MISO-Pad12)*%
X144380000Y-84810000D03*
%TO.P,Teensy4.1,13,SCK*%
%TO.N,unconnected-(Teensy4.1-SCK-Pad13)*%
X159620000Y-84810000D03*
%TO.P,Teensy4.1,14,A0*%
%TO.N,unconnected-(Teensy4.1-A0-Pad14)*%
X159620000Y-82270000D03*
%TO.P,Teensy4.1,15,A1*%
%TO.N,unconnected-(Teensy4.1-A1-Pad15)*%
X159620000Y-79730000D03*
%TO.P,Teensy4.1,16,A2*%
%TO.N,unconnected-(Teensy4.1-A2-Pad16)*%
X159620000Y-77190000D03*
%TO.P,Teensy4.1,17,A3*%
%TO.N,unconnected-(Teensy4.1-A3-Pad17)*%
X159620000Y-74650000D03*
%TO.P,Teensy4.1,18,SDA*%
%TO.N,/ASDA*%
X159620000Y-72110000D03*
%TO.P,Teensy4.1,19,SCL*%
%TO.N,/ASCL*%
X159620000Y-69570000D03*
%TO.P,Teensy4.1,20,TX5*%
%TO.N,/ADRDY*%
X159620000Y-67030000D03*
%TO.P,Teensy4.1,21,RX5*%
%TO.N,unconnected-(Teensy4.1-RX5-Pad21)*%
X159620000Y-64490000D03*
%TO.P,Teensy4.1,22,PWM*%
%TO.N,unconnected-(Teensy4.1-PWM-Pad22)*%
X159620000Y-61950000D03*
%TO.P,Teensy4.1,23,PWM*%
%TO.N,unconnected-(Teensy4.1-PWM-Pad23)*%
X159620000Y-59410000D03*
%TO.P,Teensy4.1,24,SCL2*%
%TO.N,unconnected-(Teensy4.1-SCL2-Pad24)*%
X144380000Y-89890000D03*
%TO.P,Teensy4.1,25,SDA2*%
%TO.N,unconnected-(Teensy4.1-SDA2-Pad25)*%
X144380000Y-92430000D03*
%TO.P,Teensy4.1,26,MOSI1*%
%TO.N,unconnected-(Teensy4.1-MOSI1-Pad26)*%
X144380000Y-94970000D03*
%TO.P,Teensy4.1,27,SCK1*%
%TO.N,unconnected-(Teensy4.1-SCK1-Pad27)*%
X144380000Y-97510000D03*
%TO.P,Teensy4.1,28,RX7*%
%TO.N,unconnected-(Teensy4.1-RX7-Pad28)*%
X144380000Y-100050000D03*
%TO.P,Teensy4.1,29,TX7*%
%TO.N,unconnected-(Teensy4.1-TX7-Pad29)*%
X144380000Y-102590000D03*
%TO.P,Teensy4.1,30,GPIO*%
%TO.N,unconnected-(Teensy4.1-GPIO-Pad30)*%
X144380000Y-105130000D03*
%TO.P,Teensy4.1,31,GPIO*%
%TO.N,unconnected-(Teensy4.1-GPIO-Pad31)*%
X144380000Y-107670000D03*
%TO.P,Teensy4.1,32,GPIO*%
%TO.N,unconnected-(Teensy4.1-GPIO-Pad32)*%
X144380000Y-110210000D03*
%TO.P,Teensy4.1,33,PWM*%
%TO.N,unconnected-(Teensy4.1-PWM-Pad33)*%
X159620000Y-110210000D03*
%TO.P,Teensy4.1,34,RX8*%
%TO.N,unconnected-(Teensy4.1-RX8-Pad34)*%
X159620000Y-107670000D03*
%TO.P,Teensy4.1,35,TX8*%
%TO.N,unconnected-(Teensy4.1-TX8-Pad35)*%
X159620000Y-105130000D03*
%TO.P,Teensy4.1,36,PWM*%
%TO.N,unconnected-(Teensy4.1-PWM-Pad36)*%
X159620000Y-102590000D03*
%TO.P,Teensy4.1,37,PWM*%
%TO.N,unconnected-(Teensy4.1-PWM-Pad37)*%
X159620000Y-100050000D03*
%TO.P,Teensy4.1,38,CS1*%
%TO.N,unconnected-(Teensy4.1-CS1-Pad38)*%
X159620000Y-97510000D03*
%TO.P,Teensy4.1,39,MISO1*%
%TO.N,unconnected-(Teensy4.1-MISO1-Pad39)*%
X159620000Y-94970000D03*
%TO.P,Teensy4.1,40,A16*%
%TO.N,unconnected-(Teensy4.1-A16-Pad40)*%
X159620000Y-92430000D03*
%TO.P,Teensy4.1,41,A17*%
%TO.N,unconnected-(Teensy4.1-A17-Pad41)*%
X159620000Y-89890000D03*
%TO.P,Teensy4.1,G,GND*%
%TO.N,GND*%
X144380000Y-51790000D03*
%TO.P,Teensy4.1,G1,GND*%
X159620000Y-54330000D03*
%TO.P,Teensy4.1,G2,GND*%
X159620000Y-87350000D03*
%TD*%
D22*
%TO.N,+5V*%
X171225000Y-65000000D03*
%TO.N,GND*%
X175000000Y-65000000D03*
X163225000Y-98000000D03*
X169812500Y-97950000D03*
%TD*%
D23*
%TO.N,Net-(J3-Pin_3)*%
X167950000Y-99450000D02*
X167675000Y-99175000D01*
X167950000Y-99725000D02*
X167950000Y-99450000D01*
X167675000Y-99175000D02*
X167675000Y-97112500D01*
X171250000Y-103025000D02*
X167950000Y-99725000D01*
X171250000Y-107475000D02*
X171250000Y-103025000D01*
%TO.N,Net-(J3-Pin_4)*%
X168474000Y-97474000D02*
X168325000Y-97325000D01*
X168474000Y-97993870D02*
X168474000Y-97474000D01*
X168706130Y-98706130D02*
X168706130Y-98226000D01*
X168706130Y-98226000D02*
X168474000Y-97993870D01*
X173750000Y-103750000D02*
X168706130Y-98706130D01*
X168325000Y-97325000D02*
X168325000Y-97112500D01*
X173750000Y-107475000D02*
X173750000Y-103750000D01*
D24*
%TO.N,GND*%
X177000000Y-67000000D02*
X175000000Y-65000000D01*
X177000000Y-68225000D02*
X177000000Y-67000000D01*
%TO.N,/TX*%
X162671029Y-52149000D02*
X167424000Y-52149000D01*
X161804029Y-53016000D02*
X162671029Y-52149000D01*
X167424000Y-52149000D02*
X168750000Y-53475000D01*
X158859032Y-53016000D02*
X161804029Y-53016000D01*
X150000000Y-61875032D02*
X158859032Y-53016000D01*
X144380000Y-74650000D02*
X150000000Y-69030000D01*
X150000000Y-69030000D02*
X150000000Y-61875032D01*
%TO.N,/RX*%
X168339000Y-50564000D02*
X171250000Y-53475000D01*
X149000000Y-60423032D02*
X158859032Y-50564000D01*
X149000000Y-67490000D02*
X149000000Y-60423032D01*
X144380000Y-72110000D02*
X149000000Y-67490000D01*
X158859032Y-50564000D02*
X168339000Y-50564000D01*
%TO.N,+3V3*%
X177826000Y-65826000D02*
X175000000Y-63000000D01*
X170000000Y-63000000D02*
X166008241Y-66991759D01*
X177000000Y-69775000D02*
X177826000Y-68949000D01*
X177826000Y-68949000D02*
X177826000Y-65826000D01*
X175000000Y-63000000D02*
X170000000Y-63000000D01*
X166008241Y-66991759D02*
X163000000Y-63983519D01*
X163000000Y-60250000D02*
X159620000Y-56870000D01*
X163000000Y-63983519D02*
X163000000Y-60250000D01*
X168341481Y-69325000D02*
X166008241Y-66991759D01*
X169137500Y-69325000D02*
X168341481Y-69325000D01*
%TO.N,Net-(J2-Pin_3)*%
X172674000Y-81674000D02*
X174000000Y-83000000D01*
X173918480Y-67375000D02*
X172674000Y-68619480D01*
X172674000Y-68619480D02*
X172674000Y-81674000D01*
X174862500Y-67375000D02*
X173918480Y-67375000D01*
%TO.N,GND*%
X174125001Y-70625000D02*
X174862500Y-70625000D01*
X173774000Y-70273999D02*
X174125001Y-70625000D01*
X174134418Y-69325000D02*
X173774000Y-69685418D01*
X173774000Y-69685418D02*
X173774000Y-70273999D01*
X174862500Y-69325000D02*
X174134418Y-69325000D01*
X177000000Y-68134418D02*
X177000000Y-68225000D01*
X175590582Y-66725000D02*
X177000000Y-68134418D01*
X174862500Y-66725000D02*
X175590582Y-66725000D01*
D25*
X174000000Y-72137500D02*
X174862500Y-71275000D01*
X174000000Y-78000000D02*
X174000000Y-72137500D01*
%TO.N,+3V3*%
X166250000Y-53475000D02*
X163015000Y-53475000D01*
X163015000Y-53475000D02*
X159620000Y-56870000D01*
X151175000Y-65315000D02*
X159620000Y-56870000D01*
X151175000Y-67000000D02*
X151175000Y-65315000D01*
X151175000Y-73000000D02*
X151175000Y-67000000D01*
X151175000Y-80555000D02*
X151175000Y-73000000D01*
X144380000Y-87350000D02*
X151175000Y-80555000D01*
D24*
%TO.N,/ADRDY*%
X152855000Y-67030000D02*
X152825000Y-67000000D01*
X159620000Y-67030000D02*
X152855000Y-67030000D01*
%TO.N,/ASCL*%
X159570000Y-69570000D02*
X159140000Y-70000000D01*
X159620000Y-69570000D02*
X159570000Y-69570000D01*
X159140000Y-70000000D02*
X152825000Y-70000000D01*
%TO.N,/ASDA*%
X158220000Y-73000000D02*
X152825000Y-73000000D01*
X159110000Y-72110000D02*
X158220000Y-73000000D01*
X159620000Y-72110000D02*
X159110000Y-72110000D01*
%TO.N,/ADRDY*%
X162565000Y-69975000D02*
X159620000Y-67030000D01*
X169137500Y-69975000D02*
X162565000Y-69975000D01*
%TO.N,/ASDA*%
X169680582Y-72110000D02*
X159620000Y-72110000D01*
X170226000Y-71564582D02*
X169680582Y-72110000D01*
X169865582Y-70625000D02*
X170226000Y-70985418D01*
X169137500Y-70625000D02*
X169865582Y-70625000D01*
X170226000Y-70985418D02*
X170226000Y-71564582D01*
%TO.N,/ASCL*%
X161325000Y-71275000D02*
X159620000Y-69570000D01*
X169137500Y-71275000D02*
X161325000Y-71275000D01*
%TO.N,+5V*%
X168275000Y-66725000D02*
X169137500Y-66725000D01*
X168000000Y-68274999D02*
X168000000Y-67000000D01*
X168400001Y-68675000D02*
X168000000Y-68274999D01*
X169137500Y-68675000D02*
X168400001Y-68675000D01*
X168000000Y-67000000D02*
X168275000Y-66725000D01*
X170862500Y-65000000D02*
X169137500Y-66725000D01*
X171225000Y-65000000D02*
X170862500Y-65000000D01*
%TO.N,GND*%
X174500000Y-66725000D02*
X172775000Y-65000000D01*
X174862500Y-66725000D02*
X174500000Y-66725000D01*
X174862500Y-71275000D02*
X174862500Y-70625000D01*
X174862500Y-69325000D02*
X174862500Y-68675000D01*
X176550000Y-68675000D02*
X174862500Y-68675000D01*
X177000000Y-68225000D02*
X176550000Y-68675000D01*
%TO.N,+3V3*%
X177000000Y-69775000D02*
X176800000Y-69975000D01*
X176800000Y-69975000D02*
X174862500Y-69975000D01*
%TO.N,/LC0*%
X171025000Y-68025000D02*
X169137500Y-68025000D01*
X172000000Y-69000000D02*
X171025000Y-68025000D01*
X172000000Y-74000000D02*
X172000000Y-69000000D01*
X167175000Y-78825000D02*
X172000000Y-74000000D01*
X167175000Y-90000000D02*
X167175000Y-78825000D01*
%TO.N,GND*%
X168975000Y-97112500D02*
X169812500Y-97950000D01*
D25*
%TO.N,+5V*%
X164775000Y-103500000D02*
X168750000Y-107475000D01*
X164775000Y-96000000D02*
X164775000Y-103500000D01*
D24*
X167000000Y-97087500D02*
X167025000Y-97112500D01*
X167000000Y-94151000D02*
X167000000Y-97087500D01*
X167025000Y-94126000D02*
X167000000Y-94151000D01*
X167025000Y-92887500D02*
X167025000Y-94126000D01*
%TO.N,Net-(U2-V_REF)*%
X170287500Y-92887500D02*
X171175000Y-92000000D01*
X168975000Y-92887500D02*
X170287500Y-92887500D01*
%TO.N,Net-(U2-V_FG)*%
X168325000Y-90500000D02*
X168825000Y-90000000D01*
X168325000Y-92887500D02*
X168325000Y-90500000D01*
%TO.N,/LC0*%
X167675000Y-90500000D02*
X167175000Y-90000000D01*
X167675000Y-92887500D02*
X167675000Y-90500000D01*
D25*
%TO.N,Net-(U2-V_FG)*%
X171175000Y-90000000D02*
X168825000Y-90000000D01*
%TO.N,Net-(U3-K)*%
X172825000Y-94000000D02*
X172825000Y-90000000D01*
X172062500Y-94762500D02*
X172825000Y-94000000D01*
X172062500Y-96050000D02*
X172062500Y-94762500D01*
%TO.N,GND*%
X163225000Y-98000000D02*
X163225000Y-94000000D01*
X169812500Y-97950000D02*
X172062500Y-97950000D01*
X163225000Y-90955000D02*
X159620000Y-87350000D01*
X163225000Y-94000000D02*
X163225000Y-90955000D01*
X163225000Y-104450000D02*
X163225000Y-98000000D01*
X166250000Y-107475000D02*
X163225000Y-104450000D01*
%TO.N,+5V*%
X164775000Y-96000000D02*
X164775000Y-94000000D01*
X167000000Y-94151000D02*
X171024000Y-94151000D01*
X164926000Y-94151000D02*
X167000000Y-94151000D01*
X164775000Y-94000000D02*
X164926000Y-94151000D01*
X171024000Y-94151000D02*
X171175000Y-94000000D01*
%TD*%
M02*
