%TF.GenerationSoftware,KiCad,Pcbnew,9.0.7*%
%TF.CreationDate,2026-02-20T21:04:00-05:00*%
%TF.ProjectId,RMTS-Replacement,524d5453-2d52-4657-906c-6163656d656e,rev?*%
%TF.SameCoordinates,Original*%
%TF.FileFunction,Paste,Top*%
%TF.FilePolarity,Positive*%
%FSLAX46Y46*%
G04 Gerber Fmt 4.6, Leading zero omitted, Abs format (unit mm)*
G04 Created by KiCad (PCBNEW 9.0.7) date 2026-02-20 21:04:00*
%MOMM*%
%LPD*%
G01*
G04 APERTURE LIST*
G04 Aperture macros list*
%AMRoundRect*
0 Rectangle with rounded corners*
0 $1 Rounding radius*
0 $2 $3 $4 $5 $6 $7 $8 $9 X,Y pos of 4 corners*
0 Add a 4 corners polygon primitive as box body*
4,1,4,$2,$3,$4,$5,$6,$7,$8,$9,$2,$3,0*
0 Add four circle primitives for the rounded corners*
1,1,$1+$1,$2,$3*
1,1,$1+$1,$4,$5*
1,1,$1+$1,$6,$7*
1,1,$1+$1,$8,$9*
0 Add four rect primitives between the rounded corners*
20,1,$1+$1,$2,$3,$4,$5,0*
20,1,$1+$1,$4,$5,$6,$7,0*
20,1,$1+$1,$6,$7,$8,$9,0*
20,1,$1+$1,$8,$9,$2,$3,0*%
G04 Aperture macros list end*
%ADD10RoundRect,0.150000X-0.587500X-0.150000X0.587500X-0.150000X0.587500X0.150000X-0.587500X0.150000X0*%
%ADD11RoundRect,0.100000X0.100000X-0.712500X0.100000X0.712500X-0.100000X0.712500X-0.100000X-0.712500X0*%
%ADD12RoundRect,0.100000X0.637500X0.100000X-0.637500X0.100000X-0.637500X-0.100000X0.637500X-0.100000X0*%
%ADD13RoundRect,0.200000X-0.200000X-0.275000X0.200000X-0.275000X0.200000X0.275000X-0.200000X0.275000X0*%
%ADD14RoundRect,0.225000X0.225000X0.250000X-0.225000X0.250000X-0.225000X-0.250000X0.225000X-0.250000X0*%
%ADD15RoundRect,0.225000X-0.225000X-0.250000X0.225000X-0.250000X0.225000X0.250000X-0.225000X0.250000X0*%
%ADD16RoundRect,0.225000X0.250000X-0.225000X0.250000X0.225000X-0.250000X0.225000X-0.250000X-0.225000X0*%
G04 APERTURE END LIST*
D10*
%TO.C,U3*%
X172062500Y-96050000D03*
X172062500Y-97950000D03*
X173937500Y-97000000D03*
%TD*%
D11*
%TO.C,U2*%
X167025000Y-97112500D03*
X167675000Y-97112500D03*
X168325000Y-97112500D03*
X168975000Y-97112500D03*
X168975000Y-92887500D03*
X168325000Y-92887500D03*
X167675000Y-92887500D03*
X167025000Y-92887500D03*
%TD*%
D12*
%TO.C,U1*%
X174862500Y-71275000D03*
X174862500Y-70625000D03*
X174862500Y-69975000D03*
X174862500Y-69325000D03*
X174862500Y-68675000D03*
X174862500Y-68025000D03*
X174862500Y-67375000D03*
X174862500Y-66725000D03*
X169137500Y-66725000D03*
X169137500Y-67375000D03*
X169137500Y-68025000D03*
X169137500Y-68675000D03*
X169137500Y-69325000D03*
X169137500Y-69975000D03*
X169137500Y-70625000D03*
X169137500Y-71275000D03*
%TD*%
D13*
%TO.C,R7*%
X171175000Y-94000000D03*
X172825000Y-94000000D03*
%TD*%
%TO.C,R6*%
X171175000Y-90000000D03*
X172825000Y-90000000D03*
%TD*%
%TO.C,R5*%
X171175000Y-92000000D03*
X172825000Y-92000000D03*
%TD*%
%TO.C,R4*%
X167175000Y-90000000D03*
X168825000Y-90000000D03*
%TD*%
%TO.C,R3*%
X151175000Y-67000000D03*
X152825000Y-67000000D03*
%TD*%
%TO.C,R2*%
X151175000Y-73000000D03*
X152825000Y-73000000D03*
%TD*%
%TO.C,R1*%
X151175000Y-70000000D03*
X152825000Y-70000000D03*
%TD*%
D14*
%TO.C,C5*%
X164775000Y-96000000D03*
X163225000Y-96000000D03*
%TD*%
%TO.C,C4*%
X164775000Y-94000000D03*
X163225000Y-94000000D03*
%TD*%
%TO.C,C3*%
X169500000Y-99500000D03*
X167950000Y-99500000D03*
%TD*%
D15*
%TO.C,C2*%
X171225000Y-65000000D03*
X172775000Y-65000000D03*
%TD*%
D16*
%TO.C,C1*%
X177000000Y-69775000D03*
X177000000Y-68225000D03*
%TD*%
M02*
