M48
; DRILL file {KiCad 9.0.7} date 2026-02-20T21:04:02-0500
; FORMAT={-:-/ absolute / inch / decimal}
; #@! TF.CreationDate,2026-02-20T21:04:02-05:00
; #@! TF.GenerationSoftware,Kicad,Pcbnew,9.0.7
; #@! TF.FileFunction,Plated,1,2,PTH
FMAT,2
INCH
; #@! TA.AperFunction,Plated,PTH,ViaDrill
T1C0.0118
; #@! TA.AperFunction,Plated,PTH,ComponentDrill
T2C0.0374
; #@! TA.AperFunction,Plated,PTH,ComponentDrill
T3C0.0402
%
G90
G05
T1
X6.4262Y-3.8583
X6.6855Y-3.8563
X6.7411Y-2.5591
X6.8898Y-2.5591
T2
X6.5453Y-2.1053
X6.5453Y-4.2313
X6.6437Y-2.1053
X6.6437Y-4.2313
X6.7421Y-2.1053
X6.7421Y-4.2313
X6.8406Y-2.1053
X6.8406Y-4.2313
X6.8504Y-3.0709
X6.8504Y-3.1693
X6.8504Y-3.2677
T3
X5.6843Y-2.039
X5.6843Y-2.139
X5.6843Y-2.239
X5.6843Y-2.339
X5.6843Y-2.439
X5.6843Y-2.539
X5.6843Y-2.639
X5.6843Y-2.739
X5.6843Y-2.839
X5.6843Y-2.939
X5.6843Y-3.039
X5.6843Y-3.139
X5.6843Y-3.239
X5.6843Y-3.339
X5.6843Y-3.439
X5.6843Y-3.539
X5.6843Y-3.639
X5.6843Y-3.739
X5.6843Y-3.839
X5.6843Y-3.939
X5.6843Y-4.039
X5.6843Y-4.139
X5.6843Y-4.239
X5.6843Y-4.339
X6.2843Y-2.039
X6.2843Y-2.139
X6.2843Y-2.239
X6.2843Y-2.339
X6.2843Y-2.439
X6.2843Y-2.539
X6.2843Y-2.639
X6.2843Y-2.739
X6.2843Y-2.839
X6.2843Y-2.939
X6.2843Y-3.039
X6.2843Y-3.139
X6.2843Y-3.239
X6.2843Y-3.339
X6.2843Y-3.439
X6.2843Y-3.539
X6.2843Y-3.639
X6.2843Y-3.739
X6.2843Y-3.839
X6.2843Y-3.939
X6.2843Y-4.039
X6.2843Y-4.139
X6.2843Y-4.239
X6.2843Y-4.339
M30
